<?xml version="1.0" encoding="UTF-8" standalone="no"?>
<!-- Created with Inkscape (http://www.inkscape.org/) -->

<svg
   width="97"
   height="97"
   viewBox="0 0 97 97"
   version="1.1"
   id="svg1"
   inkscape:version="1.4.2 (f4327f4, 2025-05-13)"
   sodipodi:docname="icon.svg"
   xml:space="preserve"
   inkscape:export-filename="icon.png"
   inkscape:export-xdpi="96"
   inkscape:export-ydpi="96"
   xmlns:inkscape="http://www.inkscape.org/namespaces/inkscape"
   xmlns:sodipodi="http://sodipodi.sourceforge.net/DTD/sodipodi-0.dtd"
   xmlns="http://www.w3.org/2000/svg"
   xmlns:svg="http://www.w3.org/2000/svg"><sodipodi:namedview
   id="namedview1"
   pagecolor="#ffffff"
   bordercolor="#666666"
   borderopacity="1.0"
   inkscape:showpageshadow="2"
   inkscape:pageopacity="0.0"
   inkscape:pagecheckerboard="0"
   inkscape:deskcolor="#d1d1d1"
   inkscape:document-units="mm"
   inkscape:zoom="5.6568542"
   inkscape:cx="89.449008"
   inkscape:cy="53.47495"
   inkscape:window-width="1920"
   inkscape:window-height="1009"
   inkscape:window-x="-8"
   inkscape:window-y="-8"
   inkscape:window-maximized="1"
   inkscape:current-layer="layer2"
   showgrid="false" /><defs
   id="defs1" /><g
   inkscape:groupmode="layer"
   id="layer2"
   inkscape:label="Text">
	   
	   
       
       

    
	   <rect
   x="4.4072623"
   y="17.343662"
   width="88.185478"
   height="62.312675"
   rx="6.6827874"
   ry="6.6827874"
   stroke="#008000"
   stroke-width="5.01209"
   fill="none"
   id="rect2"
   style="stroke:#e71b1a;stroke-opacity:1;fill:#1166b7;fill-opacity:1" /><line
   x1="4.4072623"
   y1="27.367844"
   x2="92.592728"
   y2="27.367844"
   stroke="#008000"
   stroke-width="6.069"
   id="line2"
   style="fill:none;fill-opacity:1;stroke:#e71b1a;stroke-opacity:1" /><path
   d="m 55.655895,35.16828 c 4.558332,-3.038886 9.116659,-1.51944 12.155545,1.519446 3.038886,3.038887 3.038886,7.597213 0,10.6361 3.038886,3.038886 4.558332,7.597218 3.038886,12.155545 -1.51944,4.558332 -6.077772,7.597219 -10.636099,7.597219 -1.519446,4.558326 -6.077773,7.597213 -10.636105,7.597213 -3.038886,0 -6.077773,-1.519441 -7.597213,-4.558327 -3.038886,1.51944 -7.597219,1.51944 -10.636105,-1.519446 -4.558327,-3.038886 -6.077773,-9.116659 -3.038886,-13.674986 -4.558327,-4.558332 -3.038887,-10.636105 1.519446,-13.674991 4.558326,-3.038886 9.116659,-3.038886 12.155545,-1.51944 1.51944,-4.558333 6.077773,-6.077773 9.116659,-6.077773 3.038886,0 7.597213,1.51944 9.116659,6.077773 z"
   fill="#fff8dc"
   stroke="#f4c542"
   stroke-width="3.03889"
   id="path1-8" /><path
   d="m 57.175341,38.207167 c 3.038886,-1.519441 6.077772,-1.519441 7.597213,1.519446 1.519446,1.51944 1.519446,4.558326 0,6.077772 1.519446,1.519441 3.038886,4.558327 1.519446,7.597213 -1.519446,3.038887 -4.558333,4.558333 -7.597219,4.558333 -1.51944,3.038886 -4.558327,6.077772 -7.597213,6.077772 -3.038886,0 -4.558332,-1.519446 -6.077773,-3.038886 -3.038886,1.51944 -6.077772,0 -7.597218,-1.519446 -3.038887,-3.038886 -3.038887,-7.597213 -1.519441,-10.636099 -3.038886,-3.038887 -1.519446,-7.597219 1.519441,-9.116659 3.038886,-1.519446 6.077772,-1.519446 9.116659,0 0,-3.038887 3.038886,-4.558333 4.558332,-4.558333 1.519446,0 4.558327,1.519446 6.077773,4.558333 z"
   fill="#fcebb2"
   id="path2-8"
   style="stroke-width:1.51945" /></g>
	   
	   
	   </svg>
