<?xml version="1.0" encoding="UTF-8" standalone="no"?>
<!-- Created with Inkscape (http://www.inkscape.org/) -->

<svg
   width="300"
   height="200"
   viewBox="0 0 300 200"
   version="1.1"
   id="svg1"
   inkscape:version="1.4.2 (f4327f4, 2025-05-13)"
   sodipodi:docname="thumbnail.svg"
   xml:space="preserve"
   inkscape:export-filename="thumbnail.png"
   inkscape:export-xdpi="96"
   inkscape:export-ydpi="96"
   xmlns:inkscape="http://www.inkscape.org/namespaces/inkscape"
   xmlns:sodipodi="http://sodipodi.sourceforge.net/DTD/sodipodi-0.dtd"
   xmlns:xlink="http://www.w3.org/1999/xlink"
   xmlns="http://www.w3.org/2000/svg"
   xmlns:svg="http://www.w3.org/2000/svg"><sodipodi:namedview
   id="namedview1"
   pagecolor="#ffffff"
   bordercolor="#666666"
   borderopacity="1.0"
   inkscape:showpageshadow="2"
   inkscape:pageopacity="0.0"
   inkscape:pagecheckerboard="0"
   inkscape:deskcolor="#d1d1d1"
   inkscape:document-units="mm"
   inkscape:zoom="2"
   inkscape:cx="198.25"
   inkscape:cy="153.75"
   inkscape:window-width="1920"
   inkscape:window-height="1009"
   inkscape:window-x="-8"
   inkscape:window-y="-8"
   inkscape:window-maximized="1"
   inkscape:current-layer="layer2"
   showgrid="false" /><defs
   id="defs1"><linearGradient
     id="linearGradient1"
     inkscape:collect="always"><stop
       style="stop-color:#5cdfe5;stop-opacity:1;"
       offset="0"
       id="stop1" /><stop
       style="stop-color:#004bad;stop-opacity:1;"
       offset="1"
       id="stop2" /></linearGradient><linearGradient
     inkscape:collect="always"
     xlink:href="#linearGradient1"
     id="linearGradient2"
     x1="0"
     y1="100"
     x2="300"
     y2="100"
     gradientUnits="userSpaceOnUse" /></defs><g
   inkscape:label="Background"
   inkscape:groupmode="layer"
   id="layer1"
   style="display:inline"
   sodipodi:insensitive="true"><rect
     style="fill:url(#linearGradient2);stroke-width:10.371"
     id="rect1"
     width="300"
     height="200"
     x="0"
     y="0" /></g><g
   inkscape:groupmode="layer"
   id="layer2"
   inkscape:label="Text"><text
   xml:space="preserve"
   style="font-size:29.3333px;line-height:1.25;font-family:sans-serif;text-align:center;text-anchor:middle;fill:#ffffff;fill-opacity:1"
   x="143.27078"
   y="27.819571"
   id="text2"><tspan
     id="tspan2"
     x="143.27078"
     y="27.819571"
     sodipodi:role="line"
     style="font-size:29.3333px;fill:#ffffff;fill-opacity:1">Display Text</tspan><tspan
     x="143.27078"
     y="64.486198"
     id="tspan3"
     sodipodi:role="line"
     style="font-size:29.3333px;fill:#ffffff;fill-opacity:1">in Popups</tspan></text>
	   
	   
       
       

    
	   <g
   id="g1"
   transform="translate(-60)"><rect
     x="132.72252"
     y="77.818504"
     width="154.55496"
     height="109.20997"
     rx="11.712337"
     ry="11.712337"
     stroke="#008000"
     stroke-width="8.78425"
     fill="none"
     id="rect2"
     style="stroke:#e71b1a;stroke-opacity:1" /><line
     x1="132.72252"
     y1="95.387009"
     x2="287.27747"
     y2="95.387009"
     stroke="#008000"
     stroke-width="10.6366"
     id="line2"
     style="fill:none;fill-opacity:1;stroke:#e71b1a;stroke-opacity:1" /></g><path
   d="m 162.54151,109.05815 c 7.98899,-5.32599 15.97797,-2.66299 21.30396,2.663 5.32599,5.32599 5.32599,13.31497 0,18.64096 5.32599,5.32599 7.98899,13.31498 5.32599,21.30396 -2.66299,7.98899 -10.65198,13.31498 -18.64096,13.31498 -2.663,7.98898 -10.65198,13.31497 -18.64097,13.31497 -5.32599,0 -10.65198,-2.66299 -13.31497,-7.98898 -5.32599,2.66299 -13.31498,2.66299 -18.64097,-2.663 -7.98898,-5.32599 -10.65198,-15.97797 -5.32599,-23.96695 -7.98898,-7.98899 -5.32599,-18.64097 2.663,-23.96696 7.98898,-5.32599 15.97797,-5.32599 21.30396,-2.66299 2.66299,-7.98899 10.65198,-10.65198 15.97797,-10.65198 5.32599,0 13.31497,2.66299 15.97797,10.65198 z"
   fill="#fff8dc"
   stroke="#f4c542"
   stroke-width="5.32599"
   id="path1-8" /><path
   d="m 165.20451,114.38414 c 5.32599,-2.66299 10.65198,-2.66299 13.31497,2.663 2.663,2.66299 2.663,7.98898 0,10.65198 2.663,2.66299 5.32599,7.98898 2.663,13.31497 -2.663,5.32599 -7.98899,7.98899 -13.31498,7.98899 -2.66299,5.32599 -7.98898,10.65198 -13.31497,10.65198 -5.32599,0 -7.98899,-2.663 -10.65198,-5.32599 -5.32599,2.66299 -10.65198,0 -13.31498,-2.663 -5.32599,-5.32599 -5.32599,-13.31497 -2.66299,-18.64096 -5.32599,-5.32599 -2.663,-13.31498 2.66299,-15.97797 5.32599,-2.663 10.65198,-2.663 15.97797,0 0,-5.32599 5.32599,-7.98899 7.98899,-7.98899 2.663,0 7.98898,2.663 10.65198,7.98899 z"
   fill="#fcebb2"
   id="path2-8"
   style="stroke-width:2.663" /></g>
	   
	   
	   </svg>
